<?xml version="1.0" encoding="UTF-8"?>
<svg xmlns="http://www.w3.org/2000/svg" viewBox="0 0 500 500">
  <g id="BACKGROUND">
    <rect width="500" height="500" style="fill:rgb(255, 255, 255);"/>
  </g>
  <g id="OBJECTS">
    <g>
      <g>
        <path d="M252.08,406.62c-4.46,0-8.12-3.58-8.19-8.06-.07-4.52,3.54-8.25,8.06-8.32,38.08-.61,74.13-15.52,101.51-41.99,3.27-3.14,8.44-3.05,11.58.2,3.15,3.25,3.06,8.43-.19,11.58-30.39,29.37-70.4,45.92-112.65,46.59h-.13Z" style="fill: #1d262d;"/>
        <path d="M246.93,91.08c-4.46,0-8.12-3.59-8.19-8.07-.06-4.52,3.54-8.24,8.07-8.31l.75-.04c.65-.05,1.29-.09,1.95-.09,4.52,0,8.19,3.67,8.19,8.19s-3.67,8.19-8.19,8.19l-.79.04c-.56.04-1.11.07-1.67.08h-.12Z" style="fill: #1d262d;"/>
        <path d="M91.61,248.85c-4.52,0-8.19-3.67-8.19-8.19,0-47.69,20.67-93.16,56.7-124.77,3.4-2.99,8.57-2.64,11.55.75,2.98,3.4,2.65,8.57-.75,11.55-32.49,28.5-51.12,69.49-51.12,112.47,0,4.52-3.67,8.19-8.19,8.19Z" style="fill: #1d262d;"/>
        <path d="M246.93,406.62h-.13c-42.26-.68-82.25-17.23-112.64-46.59-3.25-3.14-3.34-8.33-.19-11.58,3.14-3.25,8.32-3.34,11.58-.2,27.38,26.47,63.43,41.39,101.51,41.99,4.52.07,8.13,3.8,8.06,8.32-.07,4.48-3.72,8.06-8.19,8.06Z" style="fill: #1d262d;"/>
        <path d="M139.86,362.32c-2.05,0-4.1-.76-5.69-2.3-32.73-31.62-50.74-74.02-50.74-119.36,0-4.52,3.67-8.19,8.19-8.19s8.19,3.67,8.19,8.19c0,40.86,16.25,79.07,45.76,107.58,3.25,3.14,3.34,8.33.19,11.58-1.61,1.66-3.74,2.5-5.89,2.5Z" style="fill: #1d262d;"/>
        <path d="M249.51,406.75c-.68,0-1.34-.04-2.01-.09l-.75-.04c-4.52-.1-8.1-3.85-8.01-8.37.1-4.46,3.75-8.01,8.18-8.01h.19c.54.01,1.06.05,1.59.09l.81.04c4.52,0,8.19,3.67,8.19,8.19s-3.67,8.19-8.19,8.19Z" style="fill: #1d262d;"/>
        <path d="M249.51,406.75c-4.52,0-8.19-3.67-8.19-8.19s3.67-8.19,8.19-8.19l.81-.04c.52-.04,1.05-.08,1.59-.09,4.26.01,8.26,3.48,8.37,8.01.1,4.52-3.49,8.26-8.01,8.37l-.74.04c-.67.04-1.33.09-2.01.09Z" style="fill: #1d262d;"/>
        <path d="M353.49,130.23c-1.91,0-3.84-.67-5.39-2.03-26.64-23.37-60.78-36.55-96.15-37.12-4.52-.07-8.12-3.8-8.05-8.32.08-4.52,3.69-7.98,8.32-8.06,39.24.63,77.13,15.26,106.68,41.19,3.4,2.98,3.74,8.16.75,11.55-1.62,1.85-3.88,2.79-6.16,2.79Z" style="fill: #1d262d;"/>
        <path d="M145.52,130.23c-2.28,0-4.54-.94-6.16-2.79-2.98-3.4-2.65-8.57.75-11.55,29.55-25.93,67.43-40.55,106.68-41.19,4.73-.18,8.25,3.53,8.32,8.06.07,4.52-3.54,8.25-8.05,8.32-35.37.57-69.51,13.75-96.15,37.12-1.55,1.37-3.48,2.03-5.39,2.03Z" style="fill: #1d262d;"/>
        <path d="M252.08,91.08h-.12c-.56,0-1.11-.04-1.67-.08l-.78-.04c-4.52,0-8.19-3.67-8.19-8.19s3.67-8.19,8.19-8.19c.66,0,1.3.04,1.95.09l.74.04c4.52.07,8.13,3.79,8.07,8.31-.07,4.48-3.72,8.07-8.19,8.07Z" style="fill: #1d262d;"/>
        <path d="M359.16,362.32c-2.14,0-4.28-.83-5.88-2.5-3.15-3.25-3.06-8.43.19-11.58,29.5-28.51,45.75-66.71,45.75-107.58,0-42.97-18.63-83.96-51.12-112.47-3.4-2.98-3.74-8.15-.75-11.55,2.97-3.4,8.15-3.75,11.55-.75,36.03,31.61,56.7,77.09,56.7,124.77s-18.02,87.74-50.74,119.36c-1.59,1.54-3.65,2.3-5.69,2.3Z" style="fill: #1d262d;"/>
        <path d="M192.5,156.44c-1.34,0-2.71-.33-3.97-1.03-3.95-2.19-5.38-7.18-3.19-11.13,14.41-25.96,34.96-48.84,59.43-66.14,3.67-2.61,8.81-1.74,11.41,1.96,2.61,3.69,1.73,8.8-1.96,11.41-22.48,15.9-41.35,36.89-54.57,60.72-1.5,2.7-4.29,4.22-7.16,4.22Z" style="fill: #1d262d;"/>
        <path d="M249.51,93.01c-2.57,0-5.1-1.21-6.7-3.47-2.6-3.69-1.73-8.8,1.97-11.41l.91-.69c.57-.44,1.14-.89,1.74-1.3,3.73-2.57,8.82-1.62,11.39,2.1,2.56,3.73,1.62,8.82-2.1,11.39-.34.23-.67.49-.99.74-.5.39-.99.77-1.5,1.13-1.43,1.01-3.08,1.5-4.71,1.5Z" style="fill: #1d262d;"/>
        <path d="M188.31,332.92c-3.02,0-5.93-1.68-7.35-4.57-13.64-27.7-20.55-57.2-20.55-87.68,0-4.52,3.67-8.19,8.19-8.19s8.19,3.67,8.19,8.19c0,27.95,6.35,55.01,18.86,80.44,2,4.06.33,8.97-3.73,10.96-1.16.57-2.39.84-3.61.84Z" style="fill: #1d262d;"/>
        <path d="M252.07,406.62c-1.58,0-3.17-.45-4.58-1.41-.63-.43-1.24-.89-1.84-1.36l-.86-.65c-3.7-2.61-4.57-7.72-1.97-11.41,2.62-3.69,7.72-4.57,11.41-1.97.5.35.98.72,1.46,1.09.32.25.64.51.98.74,3.75,2.53,4.73,7.62,2.19,11.37-1.58,2.34-4.16,3.6-6.79,3.6Z" style="fill: #1d262d;"/>
        <path d="M249.5,404.7c-1.64,0-3.29-.49-4.72-1.5-27.08-19.15-49.15-45.04-63.83-74.86-2-4.06-.32-8.96,3.74-10.96,4.06-2,8.96-.32,10.96,3.73,13.46,27.38,33.72,51.14,58.58,68.72,3.69,2.61,4.57,7.72,1.96,11.41-1.59,2.26-4.13,3.46-6.69,3.46Z" style="fill: #1d262d;"/>
        <path d="M168.6,248.85c-4.52,0-8.19-3.67-8.19-8.19,0-33.64,8.62-66.98,24.94-96.39,2.18-3.95,7.18-5.38,11.13-3.19,3.95,2.19,5.38,7.18,3.19,11.13-14.97,26.99-22.88,57.57-22.88,88.45,0,4.52-3.67,8.19-8.19,8.19Z" style="fill: #1d262d;"/>
        <path d="M192.51,156.44c-.93,0-1.87-.16-2.8-.49-17.96-6.52-34.54-15.77-49.29-27.49-3.54-2.81-4.13-7.96-1.31-11.5,2.82-3.54,7.96-4.12,11.51-1.31,13.36,10.62,28.39,19,44.69,24.91,4.25,1.54,6.44,6.24,4.9,10.49-1.21,3.33-4.35,5.4-7.7,5.4Z" style="fill: #1d262d;"/>
        <path d="M306.5,156.44c-3.35,0-6.49-2.07-7.7-5.4-1.54-4.25.65-8.95,4.9-10.49,16.3-5.91,31.33-14.29,44.69-24.91,3.55-2.81,8.69-2.23,11.51,1.31,2.81,3.54,2.23,8.69-1.31,11.5-14.75,11.72-31.33,20.97-49.29,27.49-.93.33-1.87.49-2.8.49Z" style="fill: #1d262d;"/>
        <path d="M249.51,166.61c-4.52,0-8.19-3.67-8.19-8.19s3.67-8.19,8.19-8.19c18.26,0,36.49-3.26,54.21-9.68,4.24-1.54,8.95.66,10.48,4.91,1.54,4.25-.65,8.95-4.91,10.49-19.5,7.07-39.62,10.66-59.78,10.66Z" style="fill: #1d262d;"/>
        <path d="M249.51,166.61c-20.17,0-40.29-3.59-59.79-10.66-4.25-1.54-6.45-6.24-4.91-10.49,1.54-4.25,6.24-6.44,10.48-4.91,17.71,6.43,35.96,9.68,54.21,9.68,4.52,0,8.19,3.67,8.19,8.19s-3.67,8.19-8.19,8.19Z" style="fill: #1d262d;"/>
        <path d="M359.15,362.32c-1.9,0-3.81-.66-5.37-2.01-13.71-11.92-29.21-21.33-46.08-27.97-4.21-1.66-6.28-6.41-4.62-10.62,1.65-4.21,6.4-6.27,10.62-4.62,18.6,7.32,35.71,17.71,50.83,30.85,3.41,2.97,3.77,8.14.81,11.55-1.62,1.86-3.9,2.81-6.19,2.81Z" style="fill: #1d262d;"/>
        <path d="M310.71,332.92c-1,0-2.02-.19-3-.57-18.78-7.39-38.36-11.14-58.2-11.14-4.52,0-8.19-3.67-8.19-8.19s3.67-8.19,8.19-8.19c21.9,0,43.5,4.13,64.2,12.28,4.2,1.65,6.28,6.41,4.62,10.62-1.27,3.22-4.36,5.19-7.62,5.19Z" style="fill: #1d262d;"/>
        <path d="M188.31,332.92c-3.26,0-6.35-1.97-7.62-5.19-1.66-4.21.42-8.96,4.62-10.62,20.7-8.15,42.3-12.28,64.2-12.28,4.52,0,8.19,3.67,8.19,8.19s-3.67,8.19-8.19,8.19c-19.84,0-39.42,3.75-58.2,11.14-.99.39-2,.57-3,.57Z" style="fill: #1d262d;"/>
        <path d="M139.86,362.32c-2.29,0-4.57-.95-6.19-2.81-2.97-3.41-2.6-8.58.81-11.55,15.11-13.14,32.21-23.52,50.82-30.85,4.2-1.65,8.96.41,10.62,4.62,1.66,4.21-.41,8.96-4.62,10.62-16.87,6.65-32.38,16.06-46.08,27.97-1.55,1.35-3.47,2.01-5.37,2.01Z" style="fill: #1d262d;"/>
        <path d="M330.41,248.85c-4.52,0-8.19-3.67-8.19-8.19,0-30.87-7.91-61.46-22.88-88.45-2.19-3.96-.77-8.94,3.19-11.13,3.96-2.19,8.94-.76,11.13,3.19,16.32,29.41,24.94,62.75,24.94,96.39,0,4.52-3.67,8.19-8.19,8.19Z" style="fill: #1d262d;"/>
        <path d="M249.5,93.01c-1.61,0-3.24-.48-4.67-1.46-.55-.38-1.07-.79-1.61-1.2-.31-.24-.61-.49-.94-.71-3.72-2.56-4.66-7.66-2.1-11.39,2.56-3.73,7.65-4.67,11.39-2.1.58.4,1.13.83,1.69,1.26l.92.69c3.71,2.58,4.62,7.69,2.05,11.4-1.59,2.29-4.14,3.51-6.73,3.51Z" style="fill: #1d262d;"/>
        <path d="M246.94,406.62c-2.63,0-5.21-1.26-6.79-3.6-2.53-3.75-1.55-8.83,2.19-11.37.32-.22.63-.46.93-.7.51-.4,1.02-.79,1.55-1.16,3.72-2.58,8.81-1.67,11.4,2.05,2.58,3.71,1.66,8.81-2.05,11.4l-.88.66c-.58.45-1.18.9-1.79,1.32-1.41.95-3,1.41-4.58,1.41Z" style="fill: #1d262d;"/>
        <path d="M310.7,332.92c-1.22,0-2.45-.27-3.61-.84-4.06-2-5.73-6.91-3.73-10.96,12.52-25.43,18.86-52.49,18.86-80.44,0-4.52,3.67-8.19,8.19-8.19s8.19,3.67,8.19,8.19c0,30.48-6.91,59.98-20.55,87.68-1.42,2.89-4.33,4.57-7.35,4.57Z" style="fill: #1d262d;"/>
        <path d="M249.51,404.7c-2.56,0-5.1-1.2-6.69-3.46-2.61-3.69-1.73-8.8,1.96-11.41,24.85-17.58,45.11-41.34,58.57-68.72,2-4.06,6.91-5.73,10.96-3.73,4.06,2,5.73,6.91,3.74,10.96-14.67,29.82-36.74,55.71-63.82,74.86-1.43,1.02-3.08,1.5-4.72,1.5Z" style="fill: #1d262d;"/>
        <path d="M306.51,156.44c-2.88,0-5.67-1.52-7.16-4.22-13.21-23.82-32.08-44.81-54.56-60.72-3.69-2.61-4.57-7.72-1.96-11.41,2.61-3.7,7.73-4.57,11.41-1.96,24.48,17.32,45.03,40.19,59.42,66.14,2.19,3.96.77,8.94-3.19,11.13-1.26.7-2.62,1.03-3.97,1.03Z" style="fill: #1d262d;"/>
        <path d="M168.6,248.85h-76.99c-4.52,0-8.19-3.67-8.19-8.19s3.67-8.19,8.19-8.19h76.99c4.52,0,8.19,3.67,8.19,8.19s-3.67,8.19-8.19,8.19Z" style="fill: #1d262d;"/>
        <path d="M330.41,248.85h-80.9c-4.52,0-8.19-3.67-8.19-8.19s3.67-8.19,8.19-8.19h80.9c4.52,0,8.19,3.67,8.19,8.19s-3.67,8.19-8.19,8.19Z" style="fill: #1d262d;"/>
        <path d="M249.51,248.85h-80.91c-4.52,0-8.19-3.67-8.19-8.19s3.67-8.19,8.19-8.19h80.91c4.52,0,8.19,3.67,8.19,8.19s-3.67,8.19-8.19,8.19Z" style="fill: #1d262d;"/>
        <path d="M402.74,248.85h-72.33c-4.52,0-8.19-3.67-8.19-8.19s3.67-8.19,8.19-8.19h72.33c4.52,0,8.19,3.67,8.19,8.19s-3.67,8.19-8.19,8.19Z" style="fill: #1d262d;"/>
        <path d="M249.51,166.61c-4.52,0-8.19-3.67-8.19-8.19v-73.6c0-4.52,3.67-8.19,8.19-8.19s8.19,3.67,8.19,8.19v73.6c0,4.52-3.67,8.19-8.19,8.19Z" style="fill: #1d262d;"/>
        <path d="M249.51,248.85c-4.52,0-8.19-3.67-8.19-8.19v-82.25c0-4.52,3.67-8.19,8.19-8.19s8.19,3.67,8.19,8.19v82.25c0,4.52-3.67,8.19-8.19,8.19Z" style="fill: #1d262d;"/>
        <path d="M249.51,404.7c-4.52,0-8.19-3.67-8.19-8.19v-83.49c0-4.52,3.67-8.19,8.19-8.19s8.19,3.67,8.19,8.19v83.49c0,4.52-3.67,8.19-8.19,8.19Z" style="fill: #1d262d;"/>
        <path d="M249.51,93.01c-4.52,0-8.19-3.67-8.19-8.19v-2.05c0-4.52,3.67-8.19,8.19-8.19s8.19,3.67,8.19,8.19v2.05c0,4.52-3.67,8.19-8.19,8.19Z" style="fill: #1d262d;"/>
        <path d="M249.51,321.21c-4.52,0-8.19-3.67-8.19-8.19v-72.35c0-4.52,3.67-8.19,8.19-8.19s8.19,3.67,8.19,8.19v72.35c0,4.52-3.67,8.19-8.19,8.19Z" style="fill: #1d262d;"/>
        <path d="M249.51,406.75c-4.52,0-8.19-3.67-8.19-8.19v-2.05c0-4.52,3.67-8.19,8.19-8.19s8.19,3.67,8.19,8.19v2.05c0,4.52-3.67,8.19-8.19,8.19Z" style="fill: #1d262d;"/>
      </g>
      <g>
        <rect x="13.65" y="193.77" width="471.71" height="93.79" rx="23.1" ry="23.1" style="fill: #f9fbfc;"/>
        <path d="M438.47,294.67H60.54c-29.78,0-54-24.23-54-54s24.22-54,54-54h377.92c29.78,0,54,24.22,54,54s-24.22,54-54,54ZM60.54,200.87c-21.94,0-39.79,17.85-39.79,39.79s17.85,39.79,39.79,39.79h377.92c21.94,0,39.79-17.85,39.79-39.79s-17.85-39.79-39.79-39.79H60.54Z" style="fill: #1d262d;"/>
      </g>
    </g>
    <text transform="translate(119.5 271.3)" style="fill: #374c96; font-family: Phosphate-Inline, Phosphate; font-size: 91.35px;"><tspan x="0" y="0" style="letter-spacing: .1em;">WW</tspan><tspan x="176.49" y="0" style="letter-spacing: .05em;">W</tspan></text>
  </g>
</svg>